<svg width="483" height="382" viewBox="0 0 483 382" fill="none" xmlns="http://www.w3.org/2000/svg">
<path d="M451 0H42H37.6421C34.99 0 32.4464 1.05357 30.5711 2.92894L2.92893 30.5711C1.05357 32.4464 0 34.99 0 37.6422V371.5C0 377.023 4.47715 381.5 10 381.5H361.358C364.01 381.5 366.554 380.446 368.429 378.571L394.571 352.429C396.446 350.554 398.99 349.5 401.642 349.5H473C478.523 349.5 483 345.023 483 339.5V192.142C483 189.49 481.946 186.946 480.071 185.071L463.929 168.929C462.054 167.054 461 164.51 461 161.858V10C461 4.47715 456.523 0 451 0Z" fill="#FE1842"/>
</svg>
