<svg width="295" height="604" viewBox="0 0 295 604" fill="none" xmlns="http://www.w3.org/2000/svg">
<path d="M265.335 379.291V14.2271C265.335 6.36969 258.965 0 251.107 0H43.6636C39.7311 0 35.974 1.62769 33.2845 4.49658L3.8479 35.8956C1.37576 38.5325 0 42.0115 0 45.626V533.136C0 536.289 1.04733 539.353 2.97751 541.846L46.2283 597.71C48.9228 601.19 53.0764 603.227 57.4778 603.227H280.273C288.13 603.227 294.5 596.857 294.5 589V420.242C294.5 416.469 293.001 412.85 290.333 410.182L269.502 389.351C266.833 386.682 265.335 383.064 265.335 379.291Z" fill="#FE1842"/>
</svg>
