<svg width="31" height="51" viewBox="0 0 31 51" fill="none" xmlns="http://www.w3.org/2000/svg">
<rect y="0.891113" width="6.2" height="6.2" fill="white"/>
<rect y="13.291" width="6.2" height="6.2" fill="white"/>
<rect y="25.6912" width="6.2" height="6.2" fill="white"/>
<rect y="38.0911" width="6.2" height="6.2" fill="white"/>
<rect x="6.20001" y="7.09106" width="6.2" height="6.2" fill="white"/>
<rect x="6.20001" y="19.4912" width="6.2" height="6.2" fill="white"/>
<rect x="6.20001" y="31.8911" width="6.2" height="6.2" fill="white"/>
<rect x="6.20001" y="44.291" width="6.2" height="6.2" fill="white"/>
<rect x="12.4004" y="0.891113" width="6.2" height="6.2" fill="white"/>
<rect x="12.4004" y="13.291" width="6.2" height="6.2" fill="white"/>
<rect x="12.4004" y="25.6912" width="6.2" height="6.2" fill="white"/>
<rect x="12.4004" y="38.0911" width="6.2" height="6.2" fill="white"/>
<rect x="18.5996" y="7.09106" width="6.2" height="6.2" fill="white"/>
<rect x="18.5996" y="19.4912" width="6.2" height="6.2" fill="white"/>
<rect x="18.5996" y="31.8911" width="6.2" height="6.2" fill="white"/>
<rect x="18.5996" y="44.291" width="6.2" height="6.2" fill="white"/>
<rect x="24.8" y="0.891113" width="6.2" height="6.2" fill="white"/>
<rect x="24.8" y="13.291" width="6.2" height="6.2" fill="white"/>
<rect x="24.8" y="25.6912" width="6.2" height="6.2" fill="white"/>
<rect x="24.8" y="38.0911" width="6.2" height="6.2" fill="white"/>
</svg>
