<svg width="140" height="48" viewBox="0 0 140 48" fill="none" xmlns="http://www.w3.org/2000/svg">
<mask id="path-1-inside-1_0_86" fill="white">
<path fill-rule="evenodd" clip-rule="evenodd" d="M12.1488 0.75301C12.6972 0.267828 13.4042 0 14.1365 0H54C55.6569 0 57 1.34315 57 3V14C57 15.6569 58.3431 17 60 17H137C138.657 17 140 18.3431 140 20V45C140 46.6569 138.657 48 137 48H3C1.34314 48 0 46.6569 0 45V28V17V12.8515C0 11.9921 0.368576 11.1739 1.01228 10.6045L12.1488 0.75301Z"/>
</mask>
<path fill-rule="evenodd" clip-rule="evenodd" d="M12.1488 0.75301C12.6972 0.267828 13.4042 0 14.1365 0H54C55.6569 0 57 1.34315 57 3V14C57 15.6569 58.3431 17 60 17H137C138.657 17 140 18.3431 140 20V45C140 46.6569 138.657 48 137 48H3C1.34314 48 0 46.6569 0 45V28V17V12.8515C0 11.9921 0.368576 11.1739 1.01228 10.6045L12.1488 0.75301Z" fill="#FF2140" fill-opacity="0.05"/>
<path d="M1.01228 10.6045L1.67485 11.3535L1.01228 10.6045ZM12.1488 0.75301L12.8113 1.50201L12.1488 0.75301ZM54 1H14.1365V-1H54V1ZM56 14V3H58V14H56ZM137 18H60V16H137V18ZM139 45V20H141V45H139ZM3 47H137V49H3V47ZM1 28V45H-1V28H1ZM1 17V28H-1V17H1ZM1 12.8515V17H-1V12.8515H1ZM12.8113 1.50201L1.67485 11.3535L0.349701 9.85553L11.4862 0.00401377L12.8113 1.50201ZM-1 12.8515C-1 11.7056 -0.50856 10.6148 0.349701 9.85553L1.67485 11.3535C1.24571 11.7331 1 12.2786 1 12.8515H-1ZM3 49C0.790863 49 -1 47.2091 -1 45H1C1 46.1046 1.89543 47 3 47V49ZM141 45C141 47.2091 139.209 49 137 49V47C138.105 47 139 46.1046 139 45H141ZM137 16C139.209 16 141 17.7909 141 20H139C139 18.8954 138.105 18 137 18V16ZM58 14C58 15.1046 58.8954 16 60 16V18C57.7909 18 56 16.2091 56 14H58ZM14.1365 1C13.6483 1 13.177 1.17855 12.8113 1.50201L11.4862 0.00401377C12.2175 -0.642897 13.1601 -1 14.1365 -1V1ZM54 -1C56.2091 -1 58 0.790861 58 3H56C56 1.89543 55.1046 1 54 1V-1Z" fill="#FF2140" mask="url(#path-1-inside-1_0_86)"/>
</svg>
