<svg width="1880" height="909" viewBox="0 0 1880 909" fill="none" xmlns="http://www.w3.org/2000/svg">
<path d="M1128.36 908.5H9.99999C4.75328 908.5 0.5 904.247 0.5 899V90.8486C0.5 88.7842 1.17247 86.7759 2.41563 85.1278L63.3985 4.27925C65.1937 1.89932 68.0019 0.500031 70.9829 0.500031H768.073C770.471 0.500031 772.78 1.40683 774.537 3.03848L789.782 17.1943C791.724 18.9977 794.277 19.9999 796.927 19.9999H1087.93C1090.67 19.9999 1093.3 18.9299 1095.26 17.018L1109.44 3.19801C1111.21 1.46819 1113.59 0.500031 1116.07 0.500031H1870C1875.25 0.500031 1879.5 4.75333 1879.5 10V369.77C1879.5 372.339 1878.46 374.798 1876.62 376.587L1865.69 387.195C1863.65 389.173 1862.5 391.891 1862.5 394.73V553.5V626.585C1862.5 629.538 1863.74 632.354 1865.93 634.344L1876.4 643.895C1878.38 645.695 1879.5 648.243 1879.5 650.915V899C1879.5 904.247 1875.25 908.5 1870 908.5H1311.41C1308.47 908.5 1305.69 907.137 1303.89 904.809L1301.4 901.58C1299.41 899.007 1296.34 897.5 1293.09 897.5H1217.5H1147.64C1144.86 897.5 1142.19 898.606 1140.22 900.575L1135.08 905.717C1133.29 907.499 1130.88 908.5 1128.36 908.5Z" stroke="white" stroke-opacity="0.24"/>
<line x1="66.5" y1="2.18557e-08" x2="66.5" y2="909" stroke="white" stroke-opacity="0.24"/>
<path d="M0 87.5L774.5 87.5001L805 118.5L1084 118.5L1114 87.5001L1880 87.5002" stroke="white" stroke-opacity="0.24"/>
</svg>
