<svg width="50" height="20" viewBox="0 0 50 20" fill="none" xmlns="http://www.w3.org/2000/svg">
<circle cx="25" cy="10" r="8.86539" stroke="white" stroke-width="1.5"/>
<path d="M40.2759 10C40.2759 12.2883 38.7261 14.4881 35.9462 16.156C33.1812 17.815 29.313 18.8654 25.0002 18.8654C20.6875 18.8654 16.8193 17.815 14.0543 16.156C11.2744 14.4881 9.72461 12.2883 9.72461 10C9.72461 7.71176 11.2744 5.51199 14.0543 3.84404C16.8193 2.18506 20.6875 1.13464 25.0002 1.13464C29.313 1.13464 33.1812 2.18506 35.9462 3.84404C38.7261 5.51199 40.2759 7.71176 40.2759 10Z" stroke="white" stroke-width="1.5"/>
<path d="M49.25 10C49.25 11.0436 48.703 12.122 47.5308 13.1879C46.3584 14.254 44.6201 15.2485 42.4084 16.0991C37.9902 17.7985 31.8356 18.8654 25 18.8654C18.1644 18.8654 12.0098 17.7985 7.59157 16.0991C5.37992 15.2485 3.6416 14.254 2.4692 13.1879C1.29702 12.122 0.75 11.0436 0.75 10C0.75 8.95643 1.29702 7.87808 2.4692 6.81217C3.6416 5.74607 5.37992 4.75156 7.59157 3.90093C12.0098 2.2016 18.1644 1.13464 25 1.13464C31.8356 1.13464 37.9902 2.2016 42.4084 3.90093C44.6201 4.75156 46.3584 5.74607 47.5308 6.81218C48.703 7.87808 49.25 8.95643 49.25 10Z" stroke="white" stroke-width="1.5"/>
<line x1="25.75" y1="1.02563" x2="25.75" y2="19.6154" stroke="white" stroke-width="1.5"/>
<line x1="49.3594" y1="10.75" x2="0.641426" y2="10.75" stroke="white" stroke-width="1.5"/>
</svg>
