<svg width="47" height="48" viewBox="0 0 47 48" fill="none" xmlns="http://www.w3.org/2000/svg">
<path d="M3 0.5H44C45.3807 0.5 46.5 1.61929 46.5 3V33.2904C46.5 33.9371 46.2494 34.5586 45.8008 35.0245L34.5249 46.7341C34.0536 47.2235 33.4035 47.5 32.7241 47.5H3C1.61929 47.5 0.5 46.3807 0.5 45V3C0.5 1.61929 1.61929 0.5 3 0.5Z" fill="#FF2140" fill-opacity="0.05" stroke="#FF2140"/>
<path d="M32.7447 20.5256C32.7284 19.7462 32.5794 18.9752 32.3042 18.2458C32.0627 17.6216 31.6937 17.0546 31.2208 16.5811C30.7479 16.1075 30.1814 15.7377 29.5576 15.4954C28.8276 15.2217 28.0564 15.074 27.277 15.0586C26.2712 15.0113 25.9518 15 23.3998 15C20.8478 15 20.5284 15.0113 19.5256 15.0549C18.7464 15.0701 17.9754 15.2178 17.2458 15.4916C16.6174 15.7276 16.0485 16.0986 15.5793 16.5785C15.1021 17.0481 14.7326 17.6157 14.4961 18.242C14.2222 18.972 14.0743 19.7431 14.0586 20.5226C14.0113 21.5284 14 21.8478 14 24.396C14 26.9442 14.0113 27.2675 14.0549 28.2695C14.0688 29.0501 14.2157 29.8226 14.4893 30.5538C14.7314 31.1786 15.1013 31.7458 15.5753 32.2193C16.0493 32.6928 16.617 33.0621 17.242 33.3035C17.9718 33.577 18.7427 33.7247 19.5219 33.7402C20.5239 33.7846 20.8433 33.7951 23.3953 33.7951C25.9473 33.7951 26.2667 33.7838 27.2687 33.7402C28.0479 33.7251 28.8189 33.5774 29.5486 33.3035C30.1732 33.0618 30.7405 32.6923 31.2141 32.2186C31.6878 31.745 32.0573 31.1777 32.299 30.5531C32.5724 29.8233 32.7201 29.0524 32.7357 28.2732C32.7801 27.2705 32.7906 26.9518 32.7906 24.3998C32.7906 21.8478 32.7883 21.5284 32.7447 20.5256ZM31.0519 28.2003C31.0458 28.7959 30.9364 29.386 30.7287 29.9442C30.5721 30.3496 30.3324 30.7178 30.0251 31.0251C29.7178 31.3324 29.3496 31.5721 28.9442 31.7287C28.3859 31.9361 27.7959 32.0454 27.2003 32.0519C26.2088 32.0963 25.9119 32.1068 23.4036 32.1068C20.8952 32.1068 20.5945 32.0955 19.6068 32.0519C19.0112 32.0459 18.4211 31.9365 17.8629 31.7287C17.455 31.579 17.086 31.3393 16.7835 31.0274C16.4724 30.7242 16.2328 30.3554 16.0822 29.948C15.8748 29.3896 15.7654 28.7996 15.7589 28.2041C15.7146 27.2126 15.7041 26.9149 15.7041 24.4073C15.7041 21.8997 15.7153 21.5983 15.7589 20.6106C15.765 20.0149 15.8744 19.4249 16.0822 18.8667C16.2319 18.4578 16.473 18.0886 16.7872 17.7872C17.0904 17.476 17.4591 17.2364 17.8667 17.0859C18.425 16.8786 19.015 16.7693 19.6106 16.7627C20.602 16.7183 20.8997 16.7078 23.4073 16.7078C25.9149 16.7078 26.2164 16.7191 27.2041 16.7627C27.7997 16.7688 28.3897 16.8782 28.948 17.0859C29.3559 17.2356 29.7249 17.4753 30.0274 17.7872C30.3374 18.0907 30.576 18.4595 30.7257 18.8667C30.933 19.425 31.0424 20.015 31.0489 20.6106C31.0933 21.602 31.1038 21.8989 31.1038 24.4073C31.1038 26.9157 31.0963 27.2088 31.0519 28.2003Z" fill="#FF2140"/>
<path d="M23.3994 19.5708C22.4445 19.5708 21.511 19.854 20.717 20.3845C19.9231 20.915 19.3042 21.669 18.9388 22.5512C18.5734 23.4335 18.4778 24.4042 18.6641 25.3408C18.8504 26.2773 19.3102 27.1376 19.9854 27.8128C20.6606 28.488 21.5209 28.9479 22.4574 29.1342C23.394 29.3204 24.3648 29.2248 25.247 28.8594C26.1292 28.494 26.8832 27.8752 27.4137 27.0812C27.9443 26.2872 28.2274 25.3538 28.2274 24.3989C28.227 23.1185 27.7182 21.8907 26.8129 20.9853C25.9075 20.08 24.6797 19.5712 23.3994 19.5708ZM23.3994 27.5311C22.7798 27.5311 22.1743 27.3474 21.6592 27.0033C21.1441 26.6591 20.7426 26.1699 20.5055 25.5975C20.2684 25.0252 20.2064 24.3954 20.3273 23.7878C20.4481 23.1802 20.7464 22.6221 21.1845 22.184C21.6226 21.746 22.1807 21.4476 22.7883 21.3268C23.3959 21.2059 24.0257 21.268 24.598 21.505C25.1704 21.7421 25.6596 22.1436 26.0037 22.6587C26.3479 23.1738 26.5316 23.7794 26.5316 24.3989C26.5316 25.2296 26.2016 26.0263 25.6142 26.6137C25.0268 27.2011 24.2301 27.5311 23.3994 27.5311Z" fill="#FF2140"/>
<path d="M29.5471 19.379C29.5471 19.602 29.4809 19.82 29.357 20.0054C29.2331 20.1908 29.057 20.3353 28.851 20.4207C28.645 20.506 28.4183 20.5284 28.1996 20.4848C27.9808 20.4413 27.7799 20.334 27.6222 20.1763C27.4646 20.0186 27.3572 19.8177 27.3137 19.599C27.2702 19.3802 27.2925 19.1535 27.3778 18.9475C27.4632 18.7415 27.6077 18.5654 27.7931 18.4415C27.9785 18.3176 28.1965 18.2515 28.4195 18.2515C28.7186 18.2515 29.0054 18.3703 29.2168 18.5817C29.4283 18.7932 29.5471 19.08 29.5471 19.379Z" fill="#FF2140"/>
</svg>
