<svg width="47" height="48" viewBox="0 0 47 48" fill="none" xmlns="http://www.w3.org/2000/svg">
<path d="M3 0.5H44C45.3807 0.5 46.5 1.61929 46.5 3V33.2904C46.5 33.9371 46.2494 34.5586 45.8008 35.0245L34.5249 46.7341C34.0536 47.2235 33.4035 47.5 32.7241 47.5H3C1.61929 47.5 0.5 46.3807 0.5 45V3C0.5 1.61929 1.61929 0.5 3 0.5Z" fill="#FF2140" fill-opacity="0.05" stroke="#FF2140"/>
<path d="M32.9617 28.9467C32.9108 28.7933 32.5869 28.5673 31.9901 28.2693C31.8285 28.1753 31.5981 28.0477 31.3001 27.8857C31.0018 27.7237 30.731 27.5745 30.4883 27.4381C30.245 27.3018 30.0171 27.1697 29.8042 27.042C29.7702 27.0165 29.6636 26.942 29.4847 26.8181C29.3055 26.6947 29.1544 26.603 29.0306 26.5432C28.9071 26.4838 28.7855 26.4539 28.6662 26.4539C28.4958 26.4539 28.2829 26.5754 28.0273 26.8181C27.7717 27.0612 27.5372 27.3252 27.3243 27.611C27.1112 27.8966 26.8853 28.1606 26.6469 28.4035C26.4082 28.6465 26.212 28.7679 26.0588 28.7679C25.9818 28.7679 25.8859 28.7464 25.771 28.7041C25.6561 28.6615 25.5687 28.625 25.5086 28.5956C25.4492 28.5656 25.3471 28.5061 25.2021 28.4163C25.0569 28.3268 24.9761 28.2778 24.9591 28.2693C23.7915 27.6214 22.7901 26.8799 21.9547 26.045C21.1196 25.2095 20.378 24.2083 19.7303 23.0406C19.7218 23.0235 19.6726 22.9425 19.5832 22.7977C19.4937 22.6528 19.434 22.5507 19.4041 22.4908C19.3743 22.4312 19.3381 22.3438 19.2956 22.2288C19.253 22.1138 19.2317 22.018 19.2317 21.9412C19.2317 21.7879 19.3531 21.5917 19.5961 21.3531C19.839 21.1146 20.1032 20.8886 20.3887 20.6757C20.6743 20.4628 20.9383 20.2283 21.1813 19.9728C21.4242 19.717 21.5456 19.5041 21.5456 19.3337C21.5456 19.2144 21.5158 19.0929 21.4562 18.9693C21.3965 18.8455 21.3049 18.6944 21.1813 18.5154C21.0576 18.3364 20.9831 18.23 20.9574 18.1957C20.8297 17.9828 20.6978 17.7549 20.5612 17.5119C20.4247 17.2691 20.2757 16.9984 20.1137 16.7001C19.9518 16.402 19.824 16.1718 19.7302 16.0099C19.432 15.4134 19.2062 15.0894 19.0528 15.0385C18.9931 15.0129 18.9035 15 18.7843 15C18.5541 15 18.2537 15.0425 17.883 15.1279C17.5121 15.2131 17.2203 15.3025 17.0072 15.3964C16.581 15.5752 16.1293 16.0951 15.652 16.9557C15.2173 17.7567 15 18.5495 15 19.3334C15 19.5634 15.0149 19.7871 15.0447 20.0046C15.0746 20.2219 15.1278 20.467 15.2046 20.7397C15.2813 21.0124 15.3431 21.215 15.3899 21.3469C15.4367 21.4789 15.524 21.7154 15.6519 22.0564C15.7796 22.3973 15.8564 22.606 15.882 22.6827C16.1803 23.518 16.534 24.2636 16.9431 24.9199C17.6161 26.0107 18.5345 27.1381 19.6979 28.3015C20.8613 29.4647 21.9885 30.3831 23.0795 31.0564C23.7357 31.4653 24.4817 31.819 25.3169 32.1175C25.3936 32.1429 25.6023 32.2195 25.9431 32.3477C26.2841 32.4754 26.5207 32.5628 26.6527 32.6097C26.7847 32.6566 26.9873 32.7185 27.2598 32.7953C27.5329 32.8721 27.7777 32.9254 27.995 32.9554C28.2125 32.9848 28.4363 33 28.6662 33C29.4502 33 30.2431 32.7826 31.0442 32.348C31.9048 31.8708 32.4246 31.4191 32.6036 30.9926C32.6977 30.7798 32.7868 30.4879 32.8721 30.117C32.9575 29.7464 33 29.4461 33 29.2159C33.0003 29.0962 32.9874 29.0069 32.9617 28.9467Z" fill="#FF2140"/>
</svg>
