<svg width="249" height="81" viewBox="0 0 249 81" fill="none" xmlns="http://www.w3.org/2000/svg">
<rect x="0.5" y="0.5" width="248" height="80" rx="2.5" fill="black" fill-opacity="0.6" stroke="#FF2140"/>
<path d="M248 80V60L228 80H248Z" fill="#FF2140"/>
<path d="M248 1V21L228 1H248Z" fill="#FF2140"/>
<path d="M32.2784 27.4375H29.7898C29.7443 27.1155 29.6515 26.8295 29.5114 26.5795C29.3712 26.3258 29.1913 26.1098 28.9716 25.9318C28.7519 25.7538 28.4981 25.6174 28.2102 25.5227C27.9261 25.428 27.6174 25.3807 27.2841 25.3807C26.6818 25.3807 26.1572 25.5303 25.7102 25.8295C25.2633 26.125 24.9167 26.5568 24.6705 27.125C24.4242 27.6894 24.3011 28.375 24.3011 29.1818C24.3011 30.0114 24.4242 30.7083 24.6705 31.2727C24.9205 31.8371 25.2689 32.2633 25.7159 32.5511C26.1629 32.839 26.6799 32.983 27.267 32.983C27.5966 32.983 27.9015 32.9394 28.1818 32.8523C28.4659 32.7652 28.7178 32.6383 28.9375 32.4716C29.1572 32.3011 29.339 32.0947 29.483 31.8523C29.6307 31.6098 29.733 31.3333 29.7898 31.0227L32.2784 31.0341C32.214 31.5682 32.053 32.0833 31.7955 32.5795C31.5417 33.072 31.1989 33.5133 30.767 33.9034C30.339 34.2898 29.8277 34.5966 29.233 34.8239C28.642 35.0473 27.9735 35.1591 27.2273 35.1591C26.1894 35.1591 25.2614 34.9242 24.4432 34.4545C23.6288 33.9848 22.9848 33.3049 22.5114 32.4148C22.0417 31.5246 21.8068 30.447 21.8068 29.1818C21.8068 27.9129 22.0455 26.8333 22.5227 25.9432C23 25.053 23.6477 24.375 24.4659 23.9091C25.2841 23.4394 26.2045 23.2045 27.2273 23.2045C27.9015 23.2045 28.5265 23.2992 29.1023 23.4886C29.6818 23.678 30.1951 23.9545 30.642 24.3182C31.089 24.678 31.4527 25.1193 31.733 25.642C32.017 26.1648 32.1989 26.7633 32.2784 27.4375ZM33.9972 35V26.2727H36.4176V29.6591H37.0994L39.4744 26.2727H42.3153L39.2301 30.6023L42.3494 35H39.4744L37.321 31.9034H36.4176V35H33.9972ZM45.6847 31.8068L48.8267 26.2727H51.2131V35H48.9062V29.4489L45.7756 35H43.3722V26.2727H45.6847V31.8068ZM52.4716 37.5568V33.0795H53.142C53.3352 32.9583 53.4905 32.7652 53.608 32.5C53.7292 32.2348 53.8277 31.9223 53.9034 31.5625C53.983 31.2027 54.0436 30.8144 54.0852 30.3977C54.1307 29.9773 54.1705 29.553 54.2045 29.125L54.4318 26.2727H61.125V33.0795H62.4773V37.5568H60.1705V35H54.8352V37.5568H52.4716ZM55.5511 33.0795H58.8409V28.1364H56.4886L56.3977 29.125C56.3333 30.0568 56.2405 30.8485 56.1193 31.5C55.9981 32.1477 55.8087 32.6742 55.5511 33.0795ZM63.8878 35V26.2727H66.3082V29.6591H66.9901L69.3651 26.2727H72.206L69.1207 30.6023L72.2401 35H69.3651L67.2116 31.9034H66.3082V35H63.8878ZM75.7514 35.1648C75.1946 35.1648 74.6984 35.0682 74.2628 34.875C73.8272 34.678 73.4825 34.3883 73.2287 34.0057C72.9787 33.6193 72.8537 33.1383 72.8537 32.5625C72.8537 32.0777 72.9427 31.6705 73.1207 31.3409C73.2988 31.0114 73.5412 30.7462 73.848 30.5455C74.1548 30.3447 74.5033 30.1932 74.8935 30.0909C75.2874 29.9886 75.7003 29.9167 76.1321 29.875C76.6397 29.822 77.0488 29.7727 77.3594 29.7273C77.67 29.678 77.8954 29.6061 78.0355 29.5114C78.1757 29.4167 78.2457 29.2765 78.2457 29.0909V29.0568C78.2457 28.697 78.1321 28.4186 77.9048 28.2216C77.6813 28.0246 77.3632 27.9261 76.9503 27.9261C76.5147 27.9261 76.1681 28.0227 75.9105 28.2159C75.6529 28.4053 75.4825 28.6439 75.3991 28.9318L73.1605 28.75C73.2741 28.2197 73.4976 27.7614 73.831 27.375C74.1643 26.9848 74.5942 26.6856 75.1207 26.4773C75.651 26.2652 76.2647 26.1591 76.9616 26.1591C77.4465 26.1591 77.9105 26.2159 78.3537 26.3295C78.8007 26.4432 79.1965 26.6193 79.5412 26.858C79.8897 27.0966 80.1643 27.4034 80.3651 27.7784C80.5658 28.1496 80.6662 28.5947 80.6662 29.1136V35H78.3707V33.7898H78.3026C78.1624 34.0625 77.9749 34.303 77.7401 34.5114C77.5052 34.7159 77.223 34.8769 76.8935 34.9943C76.5639 35.108 76.1832 35.1648 75.7514 35.1648ZM76.4446 33.4943C76.8007 33.4943 77.1151 33.4242 77.3878 33.2841C77.6605 33.1402 77.8745 32.947 78.0298 32.7045C78.1851 32.4621 78.2628 32.1875 78.2628 31.8807V30.9545C78.187 31.0038 78.0829 31.0492 77.9503 31.0909C77.8215 31.1288 77.6757 31.1648 77.5128 31.1989C77.3499 31.2292 77.187 31.2576 77.0241 31.2841C76.8613 31.3068 76.7135 31.3277 76.581 31.3466C76.2969 31.3883 76.0488 31.4545 75.8366 31.5455C75.6245 31.6364 75.4598 31.7595 75.3423 31.9148C75.2249 32.0663 75.1662 32.2557 75.1662 32.483C75.1662 32.8125 75.2855 33.0644 75.5241 33.2386C75.7666 33.4091 76.0734 33.4943 76.4446 33.4943ZM91.2869 23.3636V35H88.8267V25.6989H88.7585L86.0938 27.3693V25.1875L88.9744 23.3636H91.2869ZM98.3026 35.1591C97.4995 35.1591 96.7836 35.0114 96.1548 34.7159C95.5298 34.4205 95.0336 34.0133 94.6662 33.4943C94.2988 32.9754 94.1075 32.3807 94.0923 31.7102H96.4787C96.5052 32.161 96.6946 32.5265 97.0469 32.8068C97.3991 33.0871 97.8177 33.2273 98.3026 33.2273C98.6889 33.2273 99.0298 33.142 99.3253 32.9716C99.6245 32.7973 99.8575 32.5568 100.024 32.25C100.195 31.9394 100.28 31.5833 100.28 31.1818C100.28 30.7727 100.193 30.4129 100.018 30.1023C99.848 29.7917 99.6113 29.5492 99.3082 29.375C99.0052 29.2008 98.6586 29.1117 98.2685 29.108C97.9276 29.108 97.5961 29.178 97.2741 29.3182C96.956 29.4583 96.7079 29.6496 96.5298 29.892L94.3423 29.5L94.8935 23.3636H102.007V25.375H96.9219L96.6207 28.2898H96.6889C96.8935 28.0019 97.2022 27.7633 97.6151 27.5739C98.0279 27.3845 98.4901 27.2898 99.0014 27.2898C99.7022 27.2898 100.327 27.4545 100.876 27.7841C101.426 28.1136 101.859 28.5663 102.178 29.142C102.496 29.714 102.653 30.3731 102.649 31.1193C102.653 31.9034 102.471 32.6004 102.104 33.2102C101.74 33.8163 101.231 34.2936 100.575 34.642C99.9238 34.9867 99.1662 35.1591 98.3026 35.1591ZM110.734 32.8182V32.2045C110.734 31.7386 110.833 31.3106 111.03 30.9205C111.231 30.5265 111.52 30.2121 111.899 29.9773C112.282 29.7386 112.748 29.6193 113.297 29.6193C113.854 29.6193 114.321 29.7367 114.7 29.9716C115.083 30.2064 115.371 30.5208 115.564 30.9148C115.761 31.3049 115.859 31.7348 115.859 32.2045V32.8182C115.859 33.2841 115.761 33.714 115.564 34.108C115.367 34.4981 115.077 34.8106 114.695 35.0455C114.312 35.2841 113.846 35.4034 113.297 35.4034C112.74 35.4034 112.272 35.2841 111.893 35.0455C111.515 34.8106 111.227 34.4981 111.03 34.108C110.833 33.714 110.734 33.2841 110.734 32.8182ZM112.388 32.2045V32.8182C112.388 33.0871 112.452 33.3409 112.581 33.5795C112.714 33.8182 112.952 33.9375 113.297 33.9375C113.642 33.9375 113.876 33.8201 114.001 33.5852C114.13 33.3504 114.195 33.0947 114.195 32.8182V32.2045C114.195 31.928 114.134 31.6705 114.013 31.4318C113.892 31.1932 113.653 31.0739 113.297 31.0739C112.956 31.0739 112.719 31.1932 112.587 31.4318C112.454 31.6705 112.388 31.928 112.388 32.2045ZM104.763 26.1591V25.5455C104.763 25.0758 104.863 24.6458 105.064 24.2557C105.265 23.8617 105.554 23.5473 105.933 23.3125C106.316 23.0777 106.778 22.9602 107.32 22.9602C107.88 22.9602 108.35 23.0777 108.729 23.3125C109.107 23.5473 109.395 23.8617 109.592 24.2557C109.789 24.6458 109.888 25.0758 109.888 25.5455V26.1591C109.888 26.6288 109.787 27.0587 109.587 27.4489C109.39 27.839 109.1 28.1515 108.717 28.3864C108.339 28.6174 107.873 28.733 107.32 28.733C106.767 28.733 106.299 28.6155 105.916 28.3807C105.537 28.142 105.25 27.8295 105.053 27.4432C104.859 27.053 104.763 26.625 104.763 26.1591ZM106.428 25.5455V26.1591C106.428 26.4356 106.492 26.6913 106.621 26.9261C106.753 27.161 106.986 27.2784 107.32 27.2784C107.668 27.2784 107.905 27.161 108.03 26.9261C108.159 26.6913 108.223 26.4356 108.223 26.1591V25.5455C108.223 25.2689 108.162 25.0114 108.041 24.7727C107.92 24.5341 107.679 24.4148 107.32 24.4148C106.982 24.4148 106.75 24.536 106.621 24.7784C106.492 25.0208 106.428 25.2765 106.428 25.5455ZM105.513 35L113.513 23.3636H115.001L107.001 35H105.513Z" fill="#FF2140"/>
<path d="M122.899 35V26.2727H129.763V35H128.422V27.5227H124.24V35H122.899ZM132.212 38.2727V26.2727H133.507V27.6591H133.666C133.765 27.5076 133.901 27.3144 134.075 27.0795C134.253 26.8409 134.507 26.6288 134.837 26.4432C135.17 26.2538 135.621 26.1591 136.189 26.1591C136.924 26.1591 137.571 26.3428 138.132 26.7102C138.693 27.0777 139.13 27.5985 139.445 28.2727C139.759 28.947 139.916 29.7424 139.916 30.6591C139.916 31.5833 139.759 32.3845 139.445 33.0625C139.13 33.7367 138.695 34.2595 138.138 34.6307C137.581 34.9981 136.939 35.1818 136.212 35.1818C135.651 35.1818 135.202 35.089 134.865 34.9034C134.528 34.714 134.268 34.5 134.087 34.2614C133.905 34.0189 133.765 33.8182 133.666 33.6591H133.553V38.2727H132.212ZM133.53 30.6364C133.53 31.2955 133.626 31.8769 133.82 32.3807C134.013 32.8807 134.295 33.2727 134.666 33.5568C135.037 33.8371 135.492 33.9773 136.03 33.9773C136.59 33.9773 137.058 33.8295 137.433 33.5341C137.812 33.2348 138.096 32.8333 138.286 32.3295C138.479 31.822 138.575 31.2576 138.575 30.6364C138.575 30.0227 138.481 29.4697 138.291 28.9773C138.106 28.4811 137.823 28.089 137.445 27.8011C137.07 27.5095 136.598 27.3636 136.03 27.3636C135.484 27.3636 135.026 27.5019 134.655 27.7784C134.284 28.0511 134.003 28.4337 133.814 28.9261C133.625 29.4148 133.53 29.9848 133.53 30.6364ZM143.303 33.0227L147.507 26.2727H149.053V35H147.712V28.25L143.53 35H141.962V26.2727H143.303V33.0227ZM155.463 32.7727H156.895C156.925 33.1667 157.103 33.4659 157.429 33.6705C157.759 33.875 158.187 33.9773 158.713 33.9773C159.251 33.9773 159.711 33.8674 160.094 33.6477C160.476 33.4242 160.668 33.0644 160.668 32.5682C160.668 32.2765 160.596 32.0227 160.452 31.8068C160.308 31.5871 160.105 31.4167 159.844 31.2955C159.582 31.1742 159.274 31.1136 158.918 31.1136H157.418V29.9091H158.918C159.452 29.9091 159.846 29.7879 160.099 29.5455C160.357 29.303 160.486 29 160.486 28.6364C160.486 28.2462 160.348 27.9337 160.071 27.6989C159.795 27.4602 159.402 27.3409 158.895 27.3409C158.384 27.3409 157.957 27.4564 157.616 27.6875C157.276 27.9148 157.096 28.2083 157.077 28.5682H155.668C155.683 28.0985 155.827 27.6837 156.099 27.3239C156.372 26.9602 156.743 26.6761 157.213 26.4716C157.683 26.2633 158.221 26.1591 158.827 26.1591C159.44 26.1591 159.973 26.267 160.423 26.483C160.878 26.6951 161.228 26.9848 161.474 27.3523C161.724 27.7159 161.849 28.1288 161.849 28.5909C161.849 29.0833 161.711 29.4811 161.435 29.7841C161.158 30.0871 160.812 30.303 160.395 30.4318V30.5227C160.724 30.5455 161.01 30.6515 161.253 30.8409C161.499 31.0265 161.69 31.2708 161.827 31.5739C161.963 31.8731 162.031 32.2045 162.031 32.5682C162.031 33.0985 161.889 33.5606 161.605 33.9545C161.321 34.3447 160.931 34.6477 160.435 34.8636C159.938 35.0758 159.372 35.1818 158.736 35.1818C158.118 35.1818 157.565 35.0814 157.077 34.8807C156.588 34.6761 156.2 34.3939 155.912 34.0341C155.628 33.6705 155.478 33.25 155.463 32.7727ZM166.483 35.2045C165.93 35.2045 165.428 35.1004 164.977 34.892C164.527 34.6799 164.169 34.375 163.903 33.9773C163.638 33.5758 163.506 33.0909 163.506 32.5227C163.506 32.0227 163.604 31.6174 163.801 31.3068C163.998 30.9924 164.261 30.7462 164.591 30.5682C164.92 30.3902 165.284 30.2576 165.682 30.1705C166.083 30.0795 166.487 30.0076 166.892 29.9545C167.422 29.8864 167.852 29.8352 168.182 29.8011C168.515 29.7633 168.758 29.7008 168.909 29.6136C169.064 29.5265 169.142 29.375 169.142 29.1591V29.1136C169.142 28.553 168.989 28.1174 168.682 27.8068C168.379 27.4962 167.919 27.3409 167.301 27.3409C166.661 27.3409 166.159 27.4811 165.795 27.7614C165.432 28.0417 165.176 28.3409 165.028 28.6591L163.756 28.2045C163.983 27.6742 164.286 27.2614 164.665 26.9659C165.047 26.6667 165.464 26.4583 165.915 26.3409C166.369 26.2197 166.816 26.1591 167.256 26.1591C167.536 26.1591 167.858 26.1932 168.222 26.2614C168.589 26.3258 168.943 26.4602 169.284 26.6648C169.629 26.8693 169.915 27.178 170.142 27.5909C170.369 28.0038 170.483 28.5568 170.483 29.25V35H169.142V33.8182H169.074C168.983 34.0076 168.831 34.2102 168.619 34.4261C168.407 34.642 168.125 34.8258 167.773 34.9773C167.42 35.1288 166.991 35.2045 166.483 35.2045ZM166.688 34C167.218 34 167.665 33.8958 168.028 33.6875C168.396 33.4792 168.672 33.2102 168.858 32.8807C169.047 32.5511 169.142 32.2045 169.142 31.8409V30.6136C169.085 30.6818 168.96 30.7443 168.767 30.8011C168.578 30.8542 168.358 30.9015 168.108 30.9432C167.862 30.9811 167.621 31.0152 167.386 31.0455C167.155 31.072 166.968 31.0947 166.824 31.1136C166.475 31.1591 166.15 31.233 165.847 31.3352C165.547 31.4337 165.305 31.5833 165.119 31.7841C164.938 31.9811 164.847 32.25 164.847 32.5909C164.847 33.0568 165.019 33.4091 165.364 33.6477C165.712 33.8826 166.153 34 166.688 34ZM172.93 35V26.2727H174.271V30.0682H175.158L178.294 26.2727H180.021L176.499 30.4773L180.067 35H178.339L175.476 31.3182H174.271V35H172.93ZM184.092 35.2045C183.539 35.2045 183.037 35.1004 182.587 34.892C182.136 34.6799 181.778 34.375 181.513 33.9773C181.248 33.5758 181.115 33.0909 181.115 32.5227C181.115 32.0227 181.214 31.6174 181.411 31.3068C181.607 30.9924 181.871 30.7462 182.2 30.5682C182.53 30.3902 182.893 30.2576 183.291 30.1705C183.693 30.0795 184.096 30.0076 184.501 29.9545C185.032 29.8864 185.462 29.8352 185.791 29.8011C186.125 29.7633 186.367 29.7008 186.518 29.6136C186.674 29.5265 186.751 29.375 186.751 29.1591V29.1136C186.751 28.553 186.598 28.1174 186.291 27.8068C185.988 27.4962 185.528 27.3409 184.911 27.3409C184.27 27.3409 183.768 27.4811 183.405 27.7614C183.041 28.0417 182.786 28.3409 182.638 28.6591L181.365 28.2045C181.592 27.6742 181.895 27.2614 182.274 26.9659C182.657 26.6667 183.073 26.4583 183.524 26.3409C183.979 26.2197 184.426 26.1591 184.865 26.1591C185.145 26.1591 185.467 26.1932 185.831 26.2614C186.198 26.3258 186.553 26.4602 186.893 26.6648C187.238 26.8693 187.524 27.178 187.751 27.5909C187.979 28.0038 188.092 28.5568 188.092 29.25V35H186.751V33.8182H186.683C186.592 34.0076 186.441 34.2102 186.229 34.4261C186.017 34.642 185.734 34.8258 185.382 34.9773C185.03 35.1288 184.6 35.2045 184.092 35.2045ZM184.297 34C184.827 34 185.274 33.8958 185.638 33.6875C186.005 33.4792 186.282 33.2102 186.467 32.8807C186.657 32.5511 186.751 32.2045 186.751 31.8409V30.6136C186.695 30.6818 186.57 30.7443 186.376 30.8011C186.187 30.8542 185.967 30.9015 185.717 30.9432C185.471 30.9811 185.231 31.0152 184.996 31.0455C184.765 31.072 184.577 31.0947 184.433 31.1136C184.085 31.1591 183.759 31.233 183.456 31.3352C183.157 31.4337 182.914 31.5833 182.729 31.7841C182.547 31.9811 182.456 32.25 182.456 32.5909C182.456 33.0568 182.628 33.4091 182.973 33.6477C183.321 33.8826 183.763 34 184.297 34ZM189.994 32.7727H191.426C191.456 33.1667 191.634 33.4659 191.96 33.6705C192.29 33.875 192.718 33.9773 193.244 33.9773C193.782 33.9773 194.242 33.8674 194.625 33.6477C195.008 33.4242 195.199 33.0644 195.199 32.5682C195.199 32.2765 195.127 32.0227 194.983 31.8068C194.839 31.5871 194.636 31.4167 194.375 31.2955C194.114 31.1742 193.805 31.1136 193.449 31.1136H191.949V29.9091H193.449C193.983 29.9091 194.377 29.7879 194.631 29.5455C194.888 29.303 195.017 29 195.017 28.6364C195.017 28.2462 194.879 27.9337 194.602 27.6989C194.326 27.4602 193.934 27.3409 193.426 27.3409C192.915 27.3409 192.489 27.4564 192.148 27.6875C191.807 27.9148 191.627 28.2083 191.608 28.5682H190.199C190.214 28.0985 190.358 27.6837 190.631 27.3239C190.903 26.9602 191.275 26.6761 191.744 26.4716C192.214 26.2633 192.752 26.1591 193.358 26.1591C193.972 26.1591 194.504 26.267 194.955 26.483C195.409 26.6951 195.759 26.9848 196.006 27.3523C196.256 27.7159 196.381 28.1288 196.381 28.5909C196.381 29.0833 196.242 29.4811 195.966 29.7841C195.689 30.0871 195.343 30.303 194.926 30.4318V30.5227C195.256 30.5455 195.542 30.6515 195.784 30.8409C196.03 31.0265 196.222 31.2708 196.358 31.5739C196.494 31.8731 196.562 32.2045 196.562 32.5682C196.562 33.0985 196.42 33.5606 196.136 33.9545C195.852 34.3447 195.462 34.6477 194.966 34.8636C194.47 35.0758 193.903 35.1818 193.267 35.1818C192.65 35.1818 192.097 35.0814 191.608 34.8807C191.119 34.6761 190.731 34.3939 190.443 34.0341C190.159 33.6705 190.009 33.25 189.994 32.7727ZM202.105 35.1818C201.264 35.1818 200.539 34.9962 199.929 34.625C199.323 34.25 198.855 33.7273 198.526 33.0568C198.2 32.3826 198.037 31.5985 198.037 30.7045C198.037 29.8106 198.2 29.0227 198.526 28.3409C198.855 27.6553 199.313 27.1212 199.901 26.7386C200.491 26.3523 201.181 26.1591 201.969 26.1591C202.423 26.1591 202.872 26.2348 203.315 26.3864C203.759 26.5379 204.162 26.7841 204.526 27.125C204.889 27.4621 205.179 27.9091 205.395 28.4659C205.611 29.0227 205.719 29.7083 205.719 30.5227V31.0909H198.991V29.9318H204.355C204.355 29.4394 204.257 29 204.06 28.6136C203.866 28.2273 203.59 27.9223 203.23 27.6989C202.874 27.4754 202.454 27.3636 201.969 27.3636C201.435 27.3636 200.973 27.4962 200.582 27.7614C200.196 28.0227 199.899 28.3636 199.69 28.7841C199.482 29.2045 199.378 29.6553 199.378 30.1364V30.9091C199.378 31.5682 199.491 32.1269 199.719 32.5852C199.95 33.0398 200.27 33.3864 200.679 33.625C201.088 33.8598 201.563 33.9773 202.105 33.9773C202.457 33.9773 202.776 33.928 203.06 33.8295C203.348 33.7273 203.596 33.5758 203.804 33.375C204.012 33.1705 204.173 32.9167 204.287 32.6136L205.582 32.9773C205.446 33.4167 205.217 33.803 204.895 34.1364C204.573 34.4659 204.175 34.7235 203.702 34.9091C203.228 35.0909 202.696 35.1818 202.105 35.1818ZM22.2273 62.2727V50.2727H23.5227V51.6591H23.6818C23.7803 51.5076 23.9167 51.3144 24.0909 51.0795C24.2689 50.8409 24.5227 50.6288 24.8523 50.4432C25.1856 50.2538 25.6364 50.1591 26.2045 50.1591C26.9394 50.1591 27.5871 50.3428 28.1477 50.7102C28.7083 51.0777 29.1458 51.5985 29.4602 52.2727C29.7746 52.947 29.9318 53.7424 29.9318 54.6591C29.9318 55.5833 29.7746 56.3845 29.4602 57.0625C29.1458 57.7367 28.7102 58.2595 28.1534 58.6307C27.5966 58.9981 26.9545 59.1818 26.2273 59.1818C25.6667 59.1818 25.2178 59.089 24.8807 58.9034C24.5436 58.714 24.2841 58.5 24.1023 58.2614C23.9205 58.0189 23.7803 57.8182 23.6818 57.6591H23.5682V62.2727H22.2273ZM23.5455 54.6364C23.5455 55.2955 23.642 55.8769 23.8352 56.3807C24.0284 56.8807 24.3106 57.2727 24.6818 57.5568C25.053 57.8371 25.5076 57.9773 26.0455 57.9773C26.6061 57.9773 27.0739 57.8295 27.4489 57.5341C27.8277 57.2348 28.1117 56.8333 28.3011 56.3295C28.4943 55.822 28.5909 55.2576 28.5909 54.6364C28.5909 54.0227 28.4962 53.4697 28.3068 52.9773C28.1212 52.4811 27.839 52.089 27.4602 51.8011C27.0852 51.5095 26.6136 51.3636 26.0455 51.3636C25.5 51.3636 25.0417 51.5019 24.6705 51.7784C24.2992 52.0511 24.0189 52.4337 23.8295 52.9261C23.6402 53.4148 23.5455 53.9848 23.5455 54.6364ZM35.5227 59.1818C34.7348 59.1818 34.0436 58.9943 33.4489 58.6193C32.858 58.2443 32.3958 57.7197 32.0625 57.0455C31.733 56.3712 31.5682 55.5833 31.5682 54.6818C31.5682 53.7727 31.733 52.9792 32.0625 52.3011C32.3958 51.6231 32.858 51.0966 33.4489 50.7216C34.0436 50.3466 34.7348 50.1591 35.5227 50.1591C36.3106 50.1591 37 50.3466 37.5909 50.7216C38.1856 51.0966 38.6477 51.6231 38.9773 52.3011C39.3106 52.9792 39.4773 53.7727 39.4773 54.6818C39.4773 55.5833 39.3106 56.3712 38.9773 57.0455C38.6477 57.7197 38.1856 58.2443 37.5909 58.6193C37 58.9943 36.3106 59.1818 35.5227 59.1818ZM35.5227 57.9773C36.1212 57.9773 36.6136 57.8239 37 57.517C37.3864 57.2102 37.6723 56.8068 37.858 56.3068C38.0436 55.8068 38.1364 55.2652 38.1364 54.6818C38.1364 54.0985 38.0436 53.5549 37.858 53.0511C37.6723 52.5473 37.3864 52.1402 37 51.8295C36.6136 51.5189 36.1212 51.3636 35.5227 51.3636C34.9242 51.3636 34.4318 51.5189 34.0455 51.8295C33.6591 52.1402 33.3731 52.5473 33.1875 53.0511C33.0019 53.5549 32.9091 54.0985 32.9091 54.6818C32.9091 55.2652 33.0019 55.8068 33.1875 56.3068C33.3731 56.8068 33.6591 57.2102 34.0455 57.517C34.4318 57.8239 34.9242 57.9773 35.5227 57.9773ZM45.0696 59.1818C44.2514 59.1818 43.5469 58.9886 42.956 58.6023C42.3651 58.2159 41.9105 57.6837 41.5923 57.0057C41.2741 56.3277 41.1151 55.553 41.1151 54.6818C41.1151 53.7955 41.2779 53.0133 41.6037 52.3352C41.9332 51.6534 42.3916 51.1212 42.9787 50.7386C43.5696 50.3523 44.259 50.1591 45.0469 50.1591C45.6605 50.1591 46.2135 50.2727 46.706 50.5C47.1984 50.7273 47.6018 51.0455 47.9162 51.4545C48.2306 51.8636 48.4257 52.3409 48.5014 52.8864H47.1605C47.0582 52.4886 46.831 52.1364 46.4787 51.8295C46.1302 51.5189 45.6605 51.3636 45.0696 51.3636C44.5469 51.3636 44.0885 51.5 43.6946 51.7727C43.3045 52.0417 42.9995 52.4223 42.7798 52.9148C42.5639 53.4034 42.456 53.9773 42.456 54.6364C42.456 55.3106 42.562 55.8977 42.7741 56.3977C42.9901 56.8977 43.2931 57.286 43.6832 57.5625C44.0772 57.839 44.5393 57.9773 45.0696 57.9773C45.4181 57.9773 45.7344 57.9167 46.0185 57.7955C46.3026 57.6742 46.5431 57.5 46.7401 57.2727C46.937 57.0455 47.0772 56.7727 47.1605 56.4545H48.5014C48.4257 56.9697 48.2382 57.4337 47.9389 57.8466C47.6435 58.2557 47.2514 58.5814 46.7628 58.8239C46.2779 59.0625 45.7135 59.1818 45.0696 59.1818ZM50.4616 59V50.2727H57.3253V59H55.9844V51.5227H51.8026V59H50.4616ZM61.1151 57.0227L65.3196 50.2727H66.8651V59H65.5241V52.25L61.3423 59H59.7741V50.2727H61.1151V57.0227ZM72.8665 59.1818C72.0483 59.1818 71.3438 58.9886 70.7528 58.6023C70.1619 58.2159 69.7074 57.6837 69.3892 57.0057C69.071 56.3277 68.9119 55.553 68.9119 54.6818C68.9119 53.7955 69.0748 53.0133 69.4006 52.3352C69.7301 51.6534 70.1884 51.1212 70.7756 50.7386C71.3665 50.3523 72.0559 50.1591 72.8438 50.1591C73.4574 50.1591 74.0104 50.2727 74.5028 50.5C74.9953 50.7273 75.3987 51.0455 75.7131 51.4545C76.0275 51.8636 76.2225 52.3409 76.2983 52.8864H74.9574C74.8551 52.4886 74.6278 52.1364 74.2756 51.8295C73.9271 51.5189 73.4574 51.3636 72.8665 51.3636C72.3438 51.3636 71.8854 51.5 71.4915 51.7727C71.1013 52.0417 70.7964 52.4223 70.5767 52.9148C70.3608 53.4034 70.2528 53.9773 70.2528 54.6364C70.2528 55.3106 70.3589 55.8977 70.571 56.3977C70.7869 56.8977 71.09 57.286 71.4801 57.5625C71.8741 57.839 72.3362 57.9773 72.8665 57.9773C73.215 57.9773 73.5312 57.9167 73.8153 57.7955C74.0994 57.6742 74.34 57.5 74.5369 57.2727C74.7339 57.0455 74.8741 56.7727 74.9574 56.4545H76.2983C76.2225 56.9697 76.035 57.4337 75.7358 57.8466C75.4403 58.2557 75.0483 58.5814 74.5597 58.8239C74.0748 59.0625 73.5104 59.1818 72.8665 59.1818ZM79.5994 57.0227L83.804 50.2727H85.3494V59H84.0085V52.25L79.8267 59H78.2585V50.2727H79.5994V57.0227ZM95.8509 59.1818C95.063 59.1818 94.3717 58.9943 93.777 58.6193C93.1861 58.2443 92.724 57.7197 92.3906 57.0455C92.0611 56.3712 91.8963 55.5833 91.8963 54.6818C91.8963 53.7727 92.0611 52.9792 92.3906 52.3011C92.724 51.6231 93.1861 51.0966 93.777 50.7216C94.3717 50.3466 95.063 50.1591 95.8509 50.1591C96.6387 50.1591 97.3281 50.3466 97.919 50.7216C98.5137 51.0966 98.9759 51.6231 99.3054 52.3011C99.6387 52.9792 99.8054 53.7727 99.8054 54.6818C99.8054 55.5833 99.6387 56.3712 99.3054 57.0455C98.9759 57.7197 98.5137 58.2443 97.919 58.6193C97.3281 58.9943 96.6387 59.1818 95.8509 59.1818ZM95.8509 57.9773C96.4493 57.9773 96.9418 57.8239 97.3281 57.517C97.7145 57.2102 98.0005 56.8068 98.1861 56.3068C98.3717 55.8068 98.4645 55.2652 98.4645 54.6818C98.4645 54.0985 98.3717 53.5549 98.1861 53.0511C98.0005 52.5473 97.7145 52.1402 97.3281 51.8295C96.9418 51.5189 96.4493 51.3636 95.8509 51.3636C95.2524 51.3636 94.7599 51.5189 94.3736 51.8295C93.9872 52.1402 93.7012 52.5473 93.5156 53.0511C93.33 53.5549 93.2372 54.0985 93.2372 54.6818C93.2372 55.2652 93.33 55.8068 93.5156 56.3068C93.7012 56.8068 93.9872 57.2102 94.3736 57.517C94.7599 57.8239 95.2524 57.9773 95.8509 57.9773ZM100.712 51.5227V50.2727H107.803V51.5227H104.939V59H103.598V51.5227H100.712ZM118.327 47.3636V59H116.918V48.8409H116.849L114.009 50.7273V49.2955L116.918 47.3636H118.327ZM125.469 59.1591C124.613 59.1591 123.884 58.9261 123.281 58.4602C122.679 57.9905 122.219 57.3106 121.901 56.4205C121.582 55.5265 121.423 54.447 121.423 53.1818C121.423 51.9242 121.582 50.8504 121.901 49.9602C122.223 49.0663 122.685 48.3845 123.287 47.9148C123.893 47.4413 124.62 47.2045 125.469 47.2045C126.317 47.2045 127.043 47.4413 127.645 47.9148C128.251 48.3845 128.713 49.0663 129.031 49.9602C129.353 50.8504 129.514 51.9242 129.514 53.1818C129.514 54.447 129.355 55.5265 129.037 56.4205C128.719 57.3106 128.259 57.9905 127.656 58.4602C127.054 58.9261 126.325 59.1591 125.469 59.1591ZM125.469 57.9091C126.317 57.9091 126.976 57.5 127.446 56.6818C127.916 55.8636 128.151 54.697 128.151 53.1818C128.151 52.1742 128.043 51.3163 127.827 50.608C127.615 49.8996 127.308 49.3598 126.906 48.9886C126.509 48.6174 126.029 48.4318 125.469 48.4318C124.628 48.4318 123.971 48.8466 123.497 49.6761C123.024 50.5019 122.787 51.6705 122.787 53.1818C122.787 54.1894 122.893 55.0455 123.105 55.75C123.317 56.4545 123.622 56.9905 124.02 57.358C124.421 57.7254 124.904 57.9091 125.469 57.9091ZM135.469 59.1591C134.613 59.1591 133.884 58.9261 133.281 58.4602C132.679 57.9905 132.219 57.3106 131.901 56.4205C131.582 55.5265 131.423 54.447 131.423 53.1818C131.423 51.9242 131.582 50.8504 131.901 49.9602C132.223 49.0663 132.685 48.3845 133.287 47.9148C133.893 47.4413 134.62 47.2045 135.469 47.2045C136.317 47.2045 137.043 47.4413 137.645 47.9148C138.251 48.3845 138.713 49.0663 139.031 49.9602C139.353 50.8504 139.514 51.9242 139.514 53.1818C139.514 54.447 139.355 55.5265 139.037 56.4205C138.719 57.3106 138.259 57.9905 137.656 58.4602C137.054 58.9261 136.325 59.1591 135.469 59.1591ZM135.469 57.9091C136.317 57.9091 136.976 57.5 137.446 56.6818C137.916 55.8636 138.151 54.697 138.151 53.1818C138.151 52.1742 138.043 51.3163 137.827 50.608C137.615 49.8996 137.308 49.3598 136.906 48.9886C136.509 48.6174 136.029 48.4318 135.469 48.4318C134.628 48.4318 133.971 48.8466 133.497 49.6761C133.024 50.5019 132.787 51.6705 132.787 53.1818C132.787 54.1894 132.893 55.0455 133.105 55.75C133.317 56.4545 133.622 56.9905 134.02 57.358C134.421 57.7254 134.904 57.9091 135.469 57.9091ZM150.969 57.1818L154.014 50.2727H155.287L151.514 59H150.423L146.719 50.2727H147.969L150.969 57.1818ZM147.537 50.2727V59H146.196V50.2727H147.537ZM154.401 59V50.2727H155.741V59H154.401ZM158.173 59V57.9773L162.014 53.7727C162.465 53.2803 162.836 52.8523 163.128 52.4886C163.42 52.1212 163.635 51.7765 163.776 51.4545C163.92 51.1288 163.991 50.7879 163.991 50.4318C163.991 50.0227 163.893 49.6686 163.696 49.3693C163.503 49.0701 163.238 48.839 162.901 48.6761C162.563 48.5133 162.185 48.4318 161.764 48.4318C161.317 48.4318 160.927 48.5246 160.594 48.7102C160.264 48.892 160.009 49.1477 159.827 49.4773C159.649 49.8068 159.56 50.1932 159.56 50.6364H158.219C158.219 49.9545 158.376 49.3561 158.69 48.8409C159.005 48.3258 159.433 47.9242 159.974 47.6364C160.52 47.3485 161.132 47.2045 161.81 47.2045C162.491 47.2045 163.096 47.3485 163.622 47.6364C164.149 47.9242 164.562 48.3125 164.861 48.8011C165.16 49.2898 165.31 49.8333 165.31 50.4318C165.31 50.8598 165.232 51.2784 165.077 51.6875C164.925 52.0928 164.66 52.5455 164.281 53.0455C163.906 53.5417 163.385 54.1477 162.719 54.8636L160.105 57.6591V57.75H165.514V59H158.173Z" fill="white"/>
</svg>
