<svg width="33" height="32" viewBox="0 0 33 32" fill="none" xmlns="http://www.w3.org/2000/svg">
<path d="M27.0586 13.2673C29.8582 11.4326 32.0036 9.51387 32.1752 8.69227C33.0401 4.55014 28.821 3.97221 23.444 7.49702C20.5998 9.36173 19.1467 10.8241 18.8826 12.0862C18.4257 14.2787 18.4763 14.3809 20.5976 15.535C21.9708 16.2822 23.0217 15.9146 27.0586 13.2673Z" fill="white"/>
<path d="M25.7306 31.2779C26.9168 30.7184 27.6725 29.6486 27.7374 28.4355C27.7948 27.3654 27.25 25.9622 26.5282 25.3169C25.8053 24.671 24.3397 22.8194 23.2714 21.2008C21.1923 18.053 19.3404 17.7441 17.3303 20.2126C16.3787 21.38 16.6871 22.1337 20.042 26.8514C23.6349 31.9031 23.9253 32.1283 25.7306 31.2779Z" fill="white"/>
<path d="M14.0674 13.4873C15.1573 12.9734 16.0064 11.8875 16.0547 10.9463C16.1015 10.0416 15.5797 8.6242 14.8954 7.79489C14.2104 6.96585 12.7535 4.97813 11.6574 3.37754C9.52921 0.269706 7.66296 -0.027894 5.66714 2.42196C4.71546 3.58936 5.02361 4.34216 8.37882 9.0608C11.9714 14.1115 12.2621 14.3377 14.0674 13.4873Z" fill="white"/>
<path d="M9.24235 24.9479C12.0416 23.1123 14.1874 21.1945 14.3587 20.3719C14.7205 18.641 14.3217 17.9847 12.2063 16.8328C10.8475 16.0934 9.78536 16.452 6.00948 18.9267C2.81745 21.0192 1.33778 22.4694 1.06606 23.7659C0.609091 25.9584 0.659722 26.0606 2.78133 27.2156C4.15455 27.9628 5.20515 27.5943 9.24235 24.9479Z" fill="white"/>
</svg>
