<svg width="47" height="48" viewBox="0 0 47 48" fill="none" xmlns="http://www.w3.org/2000/svg">
<path d="M3 0.5H44C45.3807 0.5 46.5 1.61929 46.5 3V33.2904C46.5 33.9371 46.2494 34.5586 45.8008 35.0245L34.5249 46.7341C34.0536 47.2235 33.4035 47.5 32.7241 47.5H3C1.61929 47.5 0.5 46.3807 0.5 45V3C0.5 1.61929 1.61929 0.5 3 0.5Z" fill="#FF2140" fill-opacity="0.05" stroke="#FF2140"/>
<path d="M20.0887 26.9187L19.7925 31.1211C19.9533 31.1225 20.1122 31.0868 20.257 31.0167C20.4017 30.9467 20.5284 30.8442 20.627 30.7171L22.6314 28.8016L26.7847 31.8429C27.5462 32.2678 28.0853 32.0438 28.2883 31.142L31.0123 18.3701C31.2537 17.2443 30.6048 16.8035 29.8628 17.0803L13.8386 23.2112C12.7453 23.6368 12.762 24.2466 13.6507 24.5226L17.7476 25.7972L27.2637 19.8426C27.7117 19.5464 28.1185 19.7104 27.784 20.0067L20.0887 26.9187Z" fill="#FF2140"/>
</svg>
