<svg width="47" height="48" viewBox="0 0 47 48" fill="none" xmlns="http://www.w3.org/2000/svg">
<path d="M3 0.5H44C45.3807 0.5 46.5 1.61929 46.5 3V33.2904C46.5 33.9371 46.2494 34.5586 45.8008 35.0245L34.5249 46.7341C34.0536 47.2235 33.4035 47.5 32.7241 47.5H3C1.61929 47.5 0.5 46.3807 0.5 45V3C0.5 1.61929 1.61929 0.5 3 0.5Z" fill="#FF2140" fill-opacity="0.05" stroke="#FF2140"/>
<path d="M35.8796 30.0814C35.8518 30.0248 35.8208 29.9696 35.7868 29.9162C35.0764 28.826 34.2047 27.8439 33.1998 27.0015L33.1729 26.9753L33.159 26.9627L33.1451 26.9491H33.1312C32.5536 26.4126 32.1878 26.0514 32.0338 25.8653C31.9024 25.7225 31.8153 25.5463 31.7824 25.3572C31.7496 25.1681 31.7724 24.9738 31.8483 24.7968C32.1911 24.1807 32.5996 23.6016 33.0672 23.069C33.4382 22.603 33.7316 22.2293 33.9474 21.9481C35.5107 19.9268 36.1872 18.6337 35.977 18.0689L35.8963 17.937C35.7827 17.8244 35.6364 17.7484 35.477 17.7194C35.1933 17.6508 34.8981 17.6397 34.6097 17.6868L30.7139 17.713C30.6247 17.6912 30.5311 17.6933 30.4431 17.7194L30.2668 17.7591L30.1991 17.7925L30.1453 17.8323C30.0877 17.8696 30.0372 17.9164 29.996 17.9705C29.9393 18.0406 29.8937 18.1185 29.8605 18.2017C29.4559 19.2252 28.9715 20.217 28.4116 21.1687C28.0777 21.7136 27.7707 22.1863 27.4906 22.5867C27.2811 22.8994 27.0456 23.1948 26.7865 23.47C26.626 23.6322 26.454 23.7831 26.2717 23.9216C26.1184 24.036 26.0012 24.0845 25.9202 24.067C25.8385 24.049 25.7625 24.0318 25.6901 24.0147C25.5622 23.9337 25.4575 23.8224 25.3859 23.6913C25.3014 23.5307 25.2485 23.3561 25.2301 23.1765C25.2028 22.97 25.1871 22.792 25.1827 22.6427C25.1784 22.4934 25.1806 22.2826 25.1892 22.0105C25.1985 21.7377 25.2032 21.5531 25.2032 21.4568C25.2032 21.1226 25.21 20.7613 25.2236 20.373C25.2372 19.9846 25.2486 19.6748 25.2579 19.4436C25.2672 19.2148 25.2718 18.9739 25.2718 18.721C25.2764 18.5201 25.2605 18.3192 25.2245 18.1213C25.193 17.9761 25.1454 17.8347 25.0826 17.6995C25.0243 17.5694 24.9274 17.4593 24.8043 17.3834C24.6638 17.3003 24.5107 17.2394 24.3507 17.2027C23.7489 17.0851 23.1363 17.0276 22.5224 17.0311C21.4311 16.9407 20.332 17.0476 19.2806 17.3463C19.0858 17.4469 18.9114 17.5809 18.7657 17.7419C18.6031 17.9352 18.5805 18.0406 18.698 18.0581C18.9191 18.073 19.1348 18.1309 19.3325 18.2284C19.5302 18.3258 19.7059 18.4607 19.8492 18.6253L19.9308 18.7833C20.0186 18.9773 20.0809 19.1812 20.1163 19.3903C20.1829 19.7076 20.2235 20.0295 20.2378 20.3531C20.2832 20.9017 20.2832 21.4529 20.2378 22.0014C20.1927 22.4584 20.1497 22.8146 20.1089 23.0699C20.0796 23.2844 20.017 23.4933 19.9234 23.6895C19.8756 23.7894 19.8214 23.8862 19.761 23.9794C19.7434 24.0057 19.7203 24.0282 19.6933 24.0454C19.5767 24.0891 19.4528 24.1114 19.3279 24.1113C19.1583 24.0972 18.9968 24.0343 18.8641 23.9307C18.6568 23.7837 18.4681 23.6133 18.302 23.4231C18.0582 23.1399 17.8385 22.8378 17.6452 22.5199C17.4016 22.1333 17.1487 21.6763 16.8865 21.1488L16.6694 20.7659C16.534 20.5196 16.3485 20.1613 16.1129 19.691C15.8773 19.2208 15.6695 18.7659 15.4895 18.3263C15.4288 18.1564 15.3153 18.009 15.1649 17.9045L15.1064 17.8612C15.0395 17.8146 14.9665 17.777 14.8894 17.7492C14.7892 17.7092 14.6846 17.6804 14.5777 17.6634L10.8674 17.6896C10.7277 17.6727 10.5858 17.6865 10.4523 17.7299C10.3188 17.7734 10.1969 17.8454 10.0957 17.9407L10.0419 18.0201C10.0099 18.086 9.99588 18.1588 10.001 18.2315C10.0067 18.3538 10.0344 18.4743 10.0827 18.5873C10.6244 19.8271 11.2134 21.023 11.8497 22.1748C12.486 23.3267 13.0392 24.2543 13.5092 24.9576C13.9785 25.6609 14.4571 26.3232 14.945 26.9446C15.433 27.566 15.7558 27.9662 15.9134 28.145C16.0717 28.3208 16.1954 28.4527 16.2845 28.5406L16.623 28.8567C16.9208 29.133 17.2399 29.3867 17.5775 29.6154C18.0259 29.9284 18.4903 30.219 18.9689 30.4861C19.5296 30.7918 20.1281 31.0267 20.7498 31.1852C21.3926 31.3616 22.0605 31.4352 22.7274 31.4028H24.2895C24.5575 31.3964 24.8134 31.293 25.0074 31.1129L25.0612 31.047C25.1074 30.9711 25.1415 30.8889 25.1623 30.8031C25.1949 30.6853 25.2108 30.5638 25.2096 30.4418C25.1975 30.0991 25.2271 29.7562 25.2978 29.4203C25.3425 29.1828 25.4198 28.9522 25.5278 28.7348C25.6053 28.5921 25.7033 28.461 25.8191 28.3455C25.8872 28.2722 25.9649 28.2079 26.05 28.154C26.0848 28.1364 26.1208 28.121 26.1576 28.108C26.2927 28.0798 26.4328 28.0837 26.566 28.1194C26.6992 28.155 26.8216 28.2215 26.9229 28.313C27.2306 28.5328 27.5083 28.7899 27.7494 29.078C28.0066 29.3791 28.3158 29.7196 28.6769 30.0995C28.9629 30.4114 29.2805 30.6943 29.6249 30.944L29.8958 31.1021C30.1184 31.225 30.355 31.3223 30.6007 31.392C30.8435 31.4762 31.1043 31.4989 31.3586 31.4579L34.8259 31.4055C35.1024 31.4199 35.3779 31.3629 35.6245 31.2403C35.7811 31.167 35.9025 31.0375 35.9631 30.879C35.9998 30.7308 36.002 30.5765 35.9696 30.4274C35.9525 30.3092 35.9223 30.1933 35.8796 30.0814Z" fill="#FF2140"/>
</svg>
